<?xml version="1.0" encoding="UTF-8" standalone="no"?>
<svg
   width="30"
   height="29.37315"
   version="1.1"
   id="svg2"
   sodipodi:docname="book.svg"
   xmlns:inkscape="http://www.inkscape.org/namespaces/inkscape"
   xmlns:sodipodi="http://sodipodi.sourceforge.net/DTD/sodipodi-0.dtd"
   xmlns="http://www.w3.org/2000/svg"
   xmlns:svg="http://www.w3.org/2000/svg">
  <defs
     id="defs2" />
  <sodipodi:namedview
     id="namedview2"
     pagecolor="#ffffff"
     bordercolor="#000000"
     borderopacity="0.25"
     inkscape:showpageshadow="2"
     inkscape:pageopacity="0.0"
     inkscape:pagecheckerboard="0"
     inkscape:deskcolor="#d1d1d1">
    <inkscape:page
       x="0"
       y="0"
       width="30"
       height="29.37315"
       id="page2"
       margin="0"
       bleed="0" />
  </sodipodi:namedview>
  <title
     id="title1" />
  <metadata
     id="imagebot_33">image/svg+xmlbooks - lineart2016-04-03Frank Tremmelbooksbookreadingeducationteachingschoolbuchbücherunterrichtschuleline artoutlineline art books</metadata>
  <g
     label="Ebene 2"
     id="imagebot_2"
     transform="matrix(0.29836265,0,0,0.29836265,-0.03906111,0)"
     inkscape:export-filename="book.png"
     inkscape:export-xdpi="96"
     inkscape:export-ydpi="96">
    <title
       id="title2">Ebene 2</title>
    <g
       id="imagebot_89">
      <path
         transform="translate(-4.44635,-5.85156)"
         label="Ebene 2"
         fill="#ffffff"
         fill-rule="evenodd"
         stroke="#ff6600"
         stroke-width="0.29055"
         stroke-miterlimit="4"
         d="M 7.51301,62.19342 C 4.78298,66.57226 5.57343,69.63091 6.54074,72.62325 L 50.8233,103.02884 91.92388,85.70472 88.7419,83.5834 88.03479,80.04787 c 1.13136,-1.09248 2.19749,-2.17191 2.91682,-3.18198 0.19776,-1.20373 1.10748,-2.76345 -0.44194,-3.09359 L 43.57545,50.79133 11.49048,60.95599 9.98788,62.3702 Z"
         id="imagebot_32" />
      <path
         transform="translate(-4.44635,-5.85156)"
         label="Ebene 2"
         clip-rule="nonzero"
         fill="#000000"
         fill-rule="evenodd"
         stroke-width="1.77165"
         stroke-miterlimit="4"
         stroke-dashoffset="0"
         d="M 43.81836,49.80859 10.36133,60.10547 c 0,0 -0.42223,1.07735 -0.90235,1.28711 -0.70042,0.306 -2.27148,-0.31055 -2.27148,-0.31055 -1.39518,0.64589 -2.42291,3.45556 -2.58203,6.04688 -0.15912,2.59131 0.36948,5.14428 1.22266,6.09961 l 44.24804,30.81445 c 0.66242,0.37448 0.9988,0.25991 1.33594,0.14648 l 41.4668,-17.11328 c 0.82061,-0.37091 0.86191,-1.2502 0.16601,-2.19726 l -4.0664,-2.82227 c 0.32776,1.47673 0.56975,2.87035 0.39843,3.68164 -8.09878,3.24477 -26.94144,10.87898 -37.66797,15.45703 -0.83446,-1.16233 -0.92786,-2.94508 -1.09179,-4.51758 -0.18248,-1.75041 -0.0091,-4.09605 0.67969,-5.13476 0.68881,-1.03871 1.52271,-0.0117 2.0664,-0.26563 0.43849,-0.20479 1.11341,-0.67161 1.47852,-1.21679 8.33209,-2.78911 26.69232,-10.20474 37.88867,-14.5625 0.80476,-0.82668 0.36365,-1.34189 -0.13867,-1.8418 z M 43.6543,51.89063 89.26367,74.65039 53.61719,88.26367 c 0,0 -0.48828,0.81641 -0.92578,0.97266 -0.37877,0.13527 -0.95847,-0.3899 -1.37305,-0.5332 -0.51012,-0.17634 -1.35994,0.14642 -1.72461,0.71484 -0.86812,1.35318 -1.39306,3.00809 -1.66992,4.58594 -0.33319,1.89885 -0.06808,3.74381 0.43555,5.41797 L 8.52539,72.01367 C 7.61611,71.39539 6.72272,69.5544 6.8418,67.61523 6.96253,65.64911 7.44436,63.6225 8.73438,63 c 0,0 1.4561,0.51505 1.9082,0.37891 0.50889,-0.15326 1.125,-1.24414 1.125,-1.24414 z M 11.55327,64.46311 c -0.77273,0.32355 12.16118,7.88538 18.95454,11.949 6.54166,3.91305 20.55082,12.16912 20.96289,11.51562 C 51.88278,87.27424 37.80637,79.49699 31.29102,75.58594 24.69647,71.62734 12.326,64.13955 11.55327,64.46311 Z"
         id="imagebot_29" />
      <path
         transform="translate(-4.44635,-5.85156)"
         label="Ebene 2"
         clip-rule="nonzero"
         fill="#000000"
         fill-rule="evenodd"
         stroke-width="1.77165"
         stroke-miterlimit="4"
         stroke-dashoffset="0"
         d="M 91.77148,75.86914 54.87305,90.0293 c -0.28282,0.23543 -1.0856,1.12551 -1.60352,1.23437 -0.60914,0.12804 -1.2524,-0.67842 -2.01172,0.23828 -0.63766,1.8202 -0.71374,3.06982 -0.5039,4.76758 0.27512,2.22601 0.40889,2.86106 1.14257,4.83399 L 89.31836,85.92383 c 0.51558,-1.6188 -0.24435,-3.20981 -0.48828,-4.65039 -0.08122,-0.53612 -0.06839,-1.00949 0.18164,-1.60742 0.25003,-0.59794 1.12067,-0.98421 2.04101,-1.9961 0.54596,-0.60026 0.66656,-1.20052 0.71875,-1.80078 z m -2.13476,1.9082 c 0.12971,0.70884 -1.15406,0.60808 -1.7793,1.39454 -0.13121,0.16504 -0.23152,0.3541 -0.31445,0.55078 -0.47681,0.16218 -2.30719,0.78244 -3.28125,1.14257 -4.05421,1.49894 -12.14359,4.56722 -12.04297,4.81055 0.10062,0.24334 8.04415,-3.10674 12.08789,-4.42578 1.037,-0.33826 2.63294,-0.83405 3.07031,-0.9707 -0.12398,0.5357 -0.14191,1.04502 -0.10937,1.25976 0.19865,1.31125 0.38954,2.22541 0.36914,3.14453 L 52.69531,99.20703 c -0.50919,-1.23215 -0.86374,-2.39902 -0.9375,-3.65625 0.39389,-0.14773 9.34401,-3.50593 14.04492,-5.49609 4.13033,-1.74861 12.73923,-4.78958 12.57227,-5.03711 -0.16696,-0.24753 -8.71336,2.7661 -12.83203,4.63867 -4.41953,2.00936 -12.72559,5.06288 -13.80274,5.36133 0.0066,-0.78936 0.12394,-1.61936 0.4004,-2.5332 0.25878,0.03288 1.24428,0.08277 1.50781,0.04102 0.58833,-0.09324 1.00323,-0.60561 1.59179,-1.1875 1.3125,-0.5 34.39649,-13.56055 34.39649,-13.56055 z M 72.27344,89.4375 c -4.36839,1.76075 -15.81552,6.54586 -15.83594,6.76758 -0.02042,0.22172 11.68073,-4.56548 16.00586,-6.32617 3.97744,-1.61917 13.97384,-5.33716 13.22907,-5.3745 -0.74478,-0.03734 -9.6998,3.44207 -13.39899,4.93309 z"
         id="imagebot_28" />
    </g>
    <g
       id="imagebot_88">
      <path
         transform="translate(-4.44635,-5.85156)"
         label="Ebene 2"
         fill="#ffffff"
         fill-rule="evenodd"
         stroke="#ff0000"
         stroke-width="0.29055"
         stroke-miterlimit="4"
         d="m 9.104,44.86931 3.27037,-0.88389 34.82501,-0.26516 38.80248,23.68808 -1.59099,0.88388 -1.59099,4.68458 c 0.45667,1.26691 0.41906,3.52239 1.5026,3.53554 L 35.88567,88.44476 6.89429,54.32686 C 7.32336,51.07184 6.13618,47.27808 9.104,44.86931 Z"
         id="imagebot_26" />
      <path
         transform="translate(-4.44635,-5.85156)"
         label="Ebene 2"
         clip-rule="nonzero"
         fill="#000000"
         fill-rule="evenodd"
         stroke-width="1.77165"
         stroke-miterlimit="4"
         stroke-dashoffset="0"
         d="m 47.48633,42.78906 -35.63867,0.34571 c -0.23161,0.32998 -0.78472,0.81626 -1.05469,0.87695 -0.28391,0.06383 -1.05356,-0.56073 -1.52539,-0.37891 -2.13977,0.82459 -2.35906,3.33599 -2.72656,4.72852 -0.66074,2.50365 -0.07168,6.31018 0.68164,7.4414 1.125,1.3125 26.79196,31.69796 27.77148,32.66407 1.13142,1.11593 2.16791,1.26816 4.05469,0.77539 8.42532,-2.20046 32.94418,-7.542 48.43359,-11.75781 0.91349,-0.47787 0.53794,-1.26823 -0.13086,-1.90235 l -3.71484,-2.25586 c 0.01724,1.01572 0.16176,1.94137 0.46094,2.89453 -14.39403,3.3198 -31.5376,7.05437 -46.13672,10.33985 -1.26992,-0.4468 -2.55639,-2.4397 -2.70313,-3.47852 -0.40598,-2.8742 0.13524,-4.2374 0.6875,-5.03711 0.54998,-0.79641 0.97305,-1.2784 1.47657,-1.59179 0.55642,0.05723 1.37938,0.29469 1.86914,0.11132 0.51899,-0.19431 0.88223,-0.5733 1.26367,-0.92773 l 46.32812,-7.23047 c 0.7198,-0.54389 0.2569,-1.30572 -0.10156,-1.63086 z m -0.41797,2.08203 36.23828,22.14454 -43.86133,6.74414 c -0.48295,0.24661 -0.65235,0.80823 -0.86718,0.88867 -0.21484,0.08043 -0.9057,-0.08245 -1.48829,-0.13867 -1.20979,0.35582 -2.77668,2.54975 -3.1582,4.10742 -0.87254,3.56239 -0.20128,5.39871 1.38281,7.93359 L 8.95508,54.88086 C 8.31849,53.91168 7.95776,52.28674 8.38086,49.64453 c 0.20991,-1.31084 0.6539,-2.57882 1.32812,-3.6582 0.42636,0.03262 0.80618,0.33484 1.51758,0.10547 0.91606,-0.29536 0.9001,-0.99274 1.11914,-1.07617 z m -35.20668,2.35424 c -0.4918,0.44787 8.23635,8.80955 12.54066,13.2903 4.3556,4.53413 12.49208,13.93631 13.13868,13.4375 C 38.18761,73.45431 29.54663,64.30544 25.20898,59.79297 21.01735,55.4324 12.35348,46.77746 11.86168,47.22533 Z"
         id="imagebot_23" />
      <path
         transform="translate(-4.44635,-5.85156)"
         label="Ebene 2"
         clip-rule="nonzero"
         fill="#000000"
         fill-rule="evenodd"
         stroke-width="1.77165"
         stroke-miterlimit="4"
         stroke-dashoffset="0"
         d="m 85.62109,68.60352 c -15.16867,2.17903 -37.0806,5.48658 -45.05664,6.98828 -0.31979,0.4392 -0.85766,0.8202 -1.53906,0.97851 -0.25779,0.05989 -0.8873,-0.06006 -1.59766,-0.12304 -1.67911,1.09326 -2.39584,3.34249 -2.16992,5.41992 0.28921,2.65937 1.37444,3.68355 2.80569,4.70703 C 53.42319,83.16678 68.78288,80.3634 84.14258,76.22461 83.03223,72.7723 84.0749,70.72989 85.62109,68.60352 Z m -3.25781,1.90429 c -0.58068,1.12703 -0.67621,1.87329 -0.51172,3.13867 -0.32558,0.06119 -3.96986,0.74379 -5.91992,1.125 -2.37083,0.46347 -6.98096,1.13319 -6.98828,1.47657 -0.0073,0.34338 4.79654,-0.4427 7.15039,-0.92969 1.73774,-0.35953 4.97575,-0.74919 5.80469,-1.37305 0.04398,0.29463 0.08441,0.57533 0.15039,0.9375 L 38.53125,85.125 c -0.56058,-0.33969 -1.0429,-1.00538 -1.39062,-1.71094 0.74643,-0.1452 7.73941,-1.50306 11.42968,-2.07812 4.24872,-0.66209 12.71075,-2.48722 12.59375,-2.79102 -0.11699,-0.30379 -8.0759,1.74007 -12.66211,2.21875 -3.8154,0.39823 -10.95005,1.88377 -11.6289,2.02539 -0.1331,-0.37406 -0.23126,-0.73796 -0.25196,-1.04687 -0.1075,-1.60474 -0.14845,-2.68877 1.25782,-4.10742 0.30362,0.24703 0.97449,0.4085 1.51172,0.29296 0.78102,-0.16796 1.13928,-0.3692 1.62304,-0.90429 z m -5.54297,2.51367 c -0.7664,-0.13863 -11.03202,1.80484 -16.33398,2.64454 -7.28985,1.15452 -21.94161,3.07222 -21.77344,3.49804 0.16817,0.42582 14.78851,-1.85871 22.13867,-3.07422 5.58085,-0.92291 16.73516,-2.92972 15.96875,-3.06836 z"
         id="imagebot_22" />
    </g>
    <g
       id="imagebot_86">
      <path
         transform="translate(-4.44635,-5.85156)"
         label="Ebene 2"
         fill="#ffffff"
         fill-rule="evenodd"
         stroke="#ff6600"
         stroke-width="0.29055"
         stroke-miterlimit="4"
         d="M 46.05033,29.66651 8.04334,35.0582 C 6.75801,38.37441 4.72376,41.27872 7.95495,47.07902 L 47.72971,77.30783 92.63099,63.96119 89.27223,62.10504 c 0.08092,-3.48348 0.96134,-6.53053 2.82843,-10.25305 z"
         id="imagebot_20" />
      <path
         transform="translate(-4.44635,-5.85156)"
         label="Ebene 2"
         clip-rule="nonzero"
         fill="#000000"
         fill-rule="evenodd"
         stroke-width="1.77165"
         stroke-miterlimit="4"
         stroke-dashoffset="0"
         d="M 46.08398,29.0625 8.36914,34.07031 c -1.93704,0.55403 -3.04259,4.78777 -2.95898,7.34766 0.06539,2.00227 1.16862,5.17228 2.42187,6.55859 L 47.99219,78.51953 94.55078,64.99414 c 0.58576,-0.7623 0.29875,-1.17549 0.07813,-1.61523 L 90.2461,60.71875 c 0,0 0.10351,1.91211 -0.02148,3.16211 C 78.25487,67.02254 59.32703,72.21139 48.13477,75.36328 47.44546,74.67089 46.50593,71.99736 46.45313,70.2832 46.363,67.35726 46.80759,65.5049 47.94336,64.47852 L 94.73047,53.94336 c 0.54299,-0.35184 0.60692,-1.21855 -0.18554,-1.98438 z m -0.12695,1.61328 44.45703,21.72656 -44.49023,9.89844 c -1.56848,1.91454 -1.96198,4.01354 -1.92578,6.11524 0.03025,1.75628 0.50777,4.34465 1.34765,5.71679 L 9.11328,46.18945 C 8.21466,45.37952 7.56122,42.81239 7.55859,41.66602 7.55455,39.89843 8.1583,38.15789 9.19141,35.93945 Z m -34.77914,6.54235 c -0.92648,0.40486 14.93149,11.7057 14.93149,11.7057 0,0 18.41509,13.41114 18.63867,12.78711 0.22357,-0.62403 -17.33399,-14.02539 -17.33399,-14.02539 0,0 -15.30968,-10.87228 -16.23617,-10.46742 z"
         id="imagebot_17" />
      <path
         transform="translate(-4.44635,-5.85156)"
         label="Ebene 2"
         clip-rule="nonzero"
         fill="#000000"
         fill-rule="evenodd"
         stroke-width="1.77165"
         stroke-miterlimit="4"
         stroke-dashoffset="0"
         d="m 92.5957,54.4082 -2.01757,0.45313 -42.1211,9.35547 c -0.77248,0.83366 -2.06732,2.48822 -1.66406,6.08593 0.20658,1.84303 0.67467,3.49945 1.80273,4.97266 l 41.63477,-11.375 c 0.17088,-1.06904 0.01681,-3.21261 0.15039,-4.75976 0.13359,-1.54716 0.63843,-2.10623 1.15039,-2.95899 z m -3.2832,2.22657 c -0.21501,0.76866 -0.5359,1.48493 -0.68555,2.28515 -0.50567,-0.01762 -1.25332,-0.03268 -1.6914,0.05859 -2.57505,0.53649 -7.71043,1.96348 -7.56055,2.25977 0.14988,0.29629 4.80374,-1.39444 7.74805,-1.57813 0.42595,-0.02657 0.98372,0.003 1.4082,0.03125 -0.04004,0.4814 -0.06099,0.87426 -0.07813,1.25977 -4.57463,1.15233 -9.66384,2.38943 -14.22461,3.51172 -5.87257,1.44508 -14.61239,3.34243 -14.5,3.83008 0.11239,0.48764 8.84413,-1.89129 14.67383,-3.32618 4.55776,-1.12181 9.45851,-2.18658 14.0332,-3.33007 0.0053,0.31092 0.02348,0.59269 0.07422,0.8164 L 49.67188,73.00977 C 48.4498,72.51899 48.44168,71.20965 48.30859,70.20508 48.1074,68.68643 48.105,66.93551 49.11133,66.12305 Z M 67.03125,63.42773 C 60.62447,65.00933 48.89569,68.11308 49,68.42383 49.10431,68.73457 60.79348,65.57564 67.12305,63.85742 70.47026,62.94879 77.3336,61.2653 76.7222,61.10285 76.11081,60.9404 70.1647,62.6542 67.03125,63.42773 Z"
         id="imagebot_16" />
    </g>
    <g
       id="imagebot_81">
      <path
         transform="translate(-4.44635,-5.85156)"
         label="Ebene 2"
         fill="#ffffff"
         fill-rule="evenodd"
         stroke="#ff6600"
         stroke-width="0.29055"
         stroke-miterlimit="4"
         d="M 51.97235,18.52958 15.29118,28.95941 c 0,0 -0.44194,1.41421 -0.97227,1.32582 -0.53033,-0.08839 -2.74004,-0.08839 -2.74004,-0.08839 -1.96652,2.50777 -2.01033,4.88735 -0.44194,7.15946 l 52.3259,25.63262 39.06765,-14.14214 -1.76776,-1.5026 1.85615,-2.74004 0.0884,-4.33103 z"
         id="imagebot_14" />
      <path
         transform="translate(-4.44635,-5.85156)"
         label="Ebene 2"
         clip-rule="nonzero"
         fill="#000000"
         fill-rule="evenodd"
         stroke-width="2.48031"
         stroke-miterlimit="4"
         stroke-dashoffset="0"
         d="m 52.00195,17.88477 c -12.33205,3.43188 -26.27269,7.12082 -37.49609,10.08007 -0.2188,0.13889 -0.29897,0.67871 -0.77734,1.16797 -0.20848,0.21322 -1.08254,-0.23648 -1.39258,-0.20117 -0.48568,0.05531 -1.04577,0.46327 -1.4375,0.80859 -0.53424,0.47096 -0.69443,0.93277 -0.93164,1.5879 -0.24497,0.67654 -0.23828,1.42949 -0.29297,2.27343 -0.10938,1.68789 0.20375,3.66547 0.91015,4.59375 17.3184,8.56646 35.85879,18.10197 52.43555,26.16992 0.3485,0.26983 1.12759,0.31141 1.57031,0.23633 0.44273,-0.07508 0.82048,-0.22313 0.95899,-0.51953 0.08798,-0.18827 0.35116,-0.54824 0.63867,-0.73633 0.29253,-0.19137 0.56988,0.29465 1.22852,0.28321 l 36.21289,-13.85547 c 0.40371,-0.15448 0.66901,-0.74011 0.002,-1.27735 l -2.30859,-1.48437 -1.15625,1.73242 C 89.41145,52.44005 77.26536,56.8968 65.89258,61.0625 65.02432,60.87691 64.01963,59.04768 63.9668,58.18555 c -0.05894,-0.96169 0.42794,-2.06735 0.72656,-2.54297 12.62268,-4.70148 26.36632,-9.37332 40.02734,-14.2168 0.64138,-0.36157 0.45604,-0.93096 -0.0996,-1.5918 z m -0.06055,1.59765 49.11133,21.41797 -36.63086,12.62695 c -0.8395,0.31676 -1.35907,0.99502 -1.80078,1.64063 -0.57452,0.83972 -0.96887,2.09202 -0.87695,3.5918 0.085,1.38702 0.42999,2.32141 0.89843,3.07226 L 12.13281,36.81055 c -0.66647,-0.98039 -0.63924,-1.87342 -0.57422,-3.04883 0.05115,-0.92462 0.304,-1.73487 0.84571,-2.41992 0.06394,-0.08086 0.78477,-0.63042 1.53515,-0.20508 0.31041,0.17595 0.61212,0.18191 1.14063,-0.19727 0.65079,-0.4669 0.42377,-0.89446 0.87305,-1.25586 L 51.94141,19.48242 Z M 15.63086,30.88086 c -0.12624,-0.02363 -0.20125,-0.01833 -0.22266,0.01563 -0.34243,0.5432 14.41957,7.56339 21.73633,11.13281 8.08608,3.94474 24.19739,11.81327 24.48438,11.35938 C 61.91589,52.93478 45.59309,45.01679 37.45703,41.06836 30.62997,37.75519 17.52444,31.23534 15.63086,30.88086 Z"
         id="imagebot_11" />
      <path
         transform="translate(-4.44635,-5.85156)"
         label="Ebene 2"
         clip-rule="nonzero"
         fill="#000000"
         fill-rule="evenodd"
         stroke-width="1px"
         stroke-miterlimit="4"
         stroke-dashoffset="0"
         d="M 103.46094,41.89453 C 90.0998,46.26502 71.6035,53.19069 64.81055,55.52734 c -0.76858,0.84464 -0.71224,1.91966 -0.45703,2.91016 0.2552,0.9905 1.0702,2.36867 1.66211,2.60742 l 34.45898,-12.34961 c 0.26244,-0.36298 1.36598,-1.38484 2.10351,-2.51953 0.36877,-0.56734 0.6543,-1.50067 0.79883,-2.11914 0.14453,-0.61847 0.38241,-1.71554 0.084,-2.16211 z m -1.28516,1.27149 c 0.25532,0.81069 -0.3075,1.44566 -0.68945,2.07031 -0.60792,0.99417 -1.41682,1.98898 -1.95117,2.70117 L 66.46875,59.79492 c -0.53268,-0.27937 -0.96061,-0.88601 -1.14648,-1.60742 -0.19082,-0.74059 -0.1274,-1.53255 0.08594,-1.87109 z M 84.64844,50.2168 c -5.74473,2.09668 -17.30711,5.83069 -17.14063,6.45117 0.16648,0.62048 11.6535,-3.89986 17.45117,-6.02344 5.45431,-1.99781 15.82655,-5.79515 15.62063,-6.04971 -0.20592,-0.25456 -10.7667,3.73707 -15.93117,5.62198 z m 14.89453,-3.40235 c -0.1253,-0.1546 -4.29081,1.2975 -6.33985,2.07813 -1.92869,0.73478 -26.881,9.66348 -26.76562,9.9707 0.11538,0.30722 25.14242,-8.80063 27.09375,-9.53515 2.0324,-0.76504 6.13701,-2.35907 6.01172,-2.51368 z"
         id="imagebot_10" />
    </g>
    <g
       id="imagebot_79">
      <path
         transform="translate(-4.44635,-5.85156)"
         label="Ebene 2"
         fill="#ffffff"
         fill-rule="evenodd"
         stroke="#ff6600"
         stroke-width="0.29055"
         stroke-miterlimit="4"
         d="m 54.97755,6.42038 -41.01219,8.13173 c -2.99889,2.89817 -4.06668,6.532 -2.12132,11.3137 l 41.63091,27.75394 48.34843,-12.19759 -4.24264,-3.0052 -0.35356,-4.5962 3.88909,-5.3033 z"
         id="imagebot_8" />
      <path
         transform="translate(-4.44635,-5.85156)"
         label="Ebene 2"
         clip-rule="nonzero"
         fill="#000000"
         fill-rule="evenodd"
         stroke-width="2.12598"
         stroke-miterlimit="4"
         stroke-dashoffset="0"
         d="m 55.15234,5.85156 -42.17578,8.20508 c 0,0 -2.77616,3.14511 -2.73242,6.38281 0.04252,3.14778 0.41311,5.01761 1.31445,5.91993 1.3138,0.91567 41.91016,28.37695 41.91016,28.37695 l 48.92187,-12.87305 c 0.5045,-0.61966 0.13287,-1.09334 -0.24218,-1.5664 l -3.74414,-1.68165 0.32617,1.71094 C 84.31672,44.15183 69.09629,48.10041 54.46094,51.73242 54.26191,50.88435 53.5691,48.51277 53.50391,47.68359 53.25499,44.51781 55.35987,41.6234 55.63672,41.25586 l 46.24414,-10.95508 c 0.50623,-0.68115 0.36172,-1.58207 -0.18164,-2.11328 z M 55.0332,7.32227 99.03516,28.71289 54.70508,39.80078 c 0,0 -3.34473,3.34471 -3.05274,7.81836 0.10706,1.64027 0.97302,3.94064 1.13282,4.56445 l -39.54883,-26.375 c -0.80751,-0.83822 -1.06576,-2.53708 -1.10547,-5.47656 -0.0257,-1.90231 1.47146,-4.46165 1.69727,-4.66015 z m -40.46289,8.60351 c -0.23217,0.47077 12.56061,8.06255 18.96875,11.87891 6.78327,4.03976 19.99843,12.20094 20.60547,11.68945 C 54.75158,38.98265 40.95278,31.0554 34.22852,27.05078 27.76137,23.19928 14.80248,15.45501 14.57031,15.92578 Z"
         id="imagebot_7" />
      <path
         transform="translate(-4.44635,-5.85156)"
         label="Ebene 2"
         clip-rule="nonzero"
         fill="#000000"
         fill-rule="evenodd"
         stroke-width="1px"
         stroke-miterlimit="4"
         stroke-dashoffset="0"
         d="m 100.96875,30.19922 c -0.13862,0.01613 -0.289,0.08418 -0.36719,0.10351 L 55.99023,41.16016 c -1.03481,1.71819 -2.06583,3.41907 -2.26171,5.26367 -0.18401,1.73278 0.68087,4.01197 0.99218,5.54492 l 44.01563,-11.5625 c -0.33462,-1.70924 -0.55903,-3.27229 -0.57813,-4.6582 -0.02325,-1.6869 0.75018,-2.93104 1.50977,-3.80274 0.37979,-0.43584 0.67002,-0.5354 0.96875,-0.75 0.24957,-0.17928 0.53941,-0.32377 0.64062,-0.49609 0.0474,-0.08069 0.0294,-0.14334 -0.002,-0.29688 -0.0373,-0.18441 -0.16733,-0.21933 -0.30664,-0.20312 z m -3.88086,2.1875 c -0.67616,0.82655 -0.85377,1.43785 -0.89453,2.08008 -2.94924,0.43033 -12.36693,2.47512 -17.47852,3.64453 -5.94434,1.35992 -17.81246,4.26268 -17.72265,4.56836 0.08981,0.30567 12.0092,-2.4817 17.97851,-3.84766 5.10161,-1.1674 14.28537,-3.2076 17.21289,-4.0664 -0.0013,0.38349 0.01774,0.78548 0.01953,1.27148 0.0078,2.11921 0.31123,2.85599 0.39454,3.23633 L 55.54102,49.54102 C 55.39958,49.16065 55.31426,48.85253 55.25,48.5625 c 0.87353,0.0075 3.5458,-0.49981 4.9707,-0.84961 1.84992,-0.45413 8.0053,-2.194 7.97852,-2.44531 -0.02678,-0.25131 -6.31817,1.40391 -8.22266,1.87109 -1.39923,0.34324 -3.96703,0.84717 -4.76953,1.18164 -0.09457,-0.56917 -0.08183,-1.09637 -0.0293,-1.92383 0.12662,-1.99454 1.03857,-3.19827 1.18945,-3.42578 z m -24.48047,9.69531 c -5.18181,1.13842 -15.46165,3.2177 -15.4375,3.66406 0.02415,0.44637 10.46935,-1.78753 15.65039,-2.92578 5.75385,-1.26409 17.26426,-3.97971 16.44633,-4.12239 -0.81792,-0.14268 -11.2657,2.19918 -16.65922,3.38411 z"
         id="imagebot_6" />
    </g>
  </g>
</svg>
