<?xml version="1.0" encoding="UTF-8" standalone="no"?>
<svg
   width="29.999985"
   height="45.916008"
   viewBox="0 0 29.999985 45.916008"
   fill="none"
   version="1.1"
   id="svg1"
   sodipodi:docname="dog.svg"
   xmlns:inkscape="http://www.inkscape.org/namespaces/inkscape"
   xmlns:sodipodi="http://sodipodi.sourceforge.net/DTD/sodipodi-0.dtd"
   xmlns="http://www.w3.org/2000/svg"
   xmlns:svg="http://www.w3.org/2000/svg">
  <defs
     id="defs1" />
  <sodipodi:namedview
     id="namedview1"
     pagecolor="#ffffff"
     bordercolor="#000000"
     borderopacity="0.25"
     inkscape:showpageshadow="2"
     inkscape:pageopacity="0.0"
     inkscape:pagecheckerboard="0"
     inkscape:deskcolor="#d1d1d1">
    <inkscape:page
       x="0"
       y="0"
       width="29.999985"
       height="45.916008"
       id="page2"
       margin="0"
       bleed="0" />
  </sodipodi:namedview>
  <path
     fill-rule="evenodd"
     clip-rule="evenodd"
     d="m 11.338387,0.11197449 c 0.28953,0.09498 0.83309,0.331375 1.20802,0.525546 0.52701,0.272756 0.97961,0.322775 1.99328,0.220019 1.614,-0.163284 2.0997,0.15108501 3.21157,2.07866701 0.41226,0.714885 1.40515,1.918318 2.20648,2.674344 1.33582,1.26093 1.45685,1.445376 1.45685,2.224715 0,0.65734 -0.19218,1.11888 -0.84698,2.033986 -1.01694,1.4215805 -1.45927,2.5945745 -1.47147,3.9017665 l -0.009,0.971636 -0.83079,-0.945546 c -0.45707,-0.520122 -0.99616,-1.347173 -1.19836,-1.837823 -0.20196,-0.490892 -0.42663,-0.89264 -0.49923,-0.893123 -0.92694,-0.0057 -0.75808,3.281508 0.30234,5.882967 1.16744,2.86442 1.49224,4.682313 1.5013,8.40543 0.004,1.79144 -0.0691,4.030408 -0.1627,4.975592 l -0.17068,1.718361 1.55336,-0.117529 c 1.50191,-0.113663 1.57668,-0.09687 2.25443,0.509252 0.61905,0.553703 0.7117,0.77656 0.79359,1.908848 0.0795,1.10052 0.004,1.469413 -0.53329,2.605445 -0.34437,0.727882 -1.25948,2.168185 -2.0335,3.200581 -0.77414,1.03227 -1.55131,2.15538 -1.72706,2.49565 l -0.31973,0.6188 0.5967,-0.10533 c 4.41911,-0.77958 4.75938,-4.042724 6.02768,-6.209701 1.26829,-2.166976 -0.26031,0.112335 1.18918,-2.605445 1.44948,-2.71778 4.8577,-4.548598 4.04647,1.377734 -0.42277,0.781995 -4.20894,6.180952 -5.23565,6.923942 -1.02672,0.74286 -3.6992,3.33924 -10.05011,3.26363 -9.3357596,-0.11137 -11.6474396,-0.54827 -12.0717796,-0.78695 -0.28869,-0.16246 -0.66084,-0.35851 -0.82717,-0.43545 -0.52338,-0.24231 -0.48413,-0.60745 0.12635,-1.17384 0.53437,-0.49548 0.69684,-0.53474 1.69553,-0.40996 0.60757,0.0761 1.10426,0.0605 1.10366,-0.0344 -6e-4,-0.0951 -0.37493,-0.64562 -0.832,-1.22348 -1.71921,-2.17338 -2.67889,-3.605228 -3.11301006,-4.644628 -0.85387,-2.044012 -0.85833,-3.688329 -0.0126,-4.70647 0.38858006,-0.4677 0.58921006,-0.523384 1.83009006,-0.508527 0.76666,0.0093 1.58272,0.05653 1.81367,0.105087 0.23928,0.05025 0.40054,-0.01474 0.37517,-0.151108 -0.0246,-0.131541 -0.15932,-1.703263 -0.29956,-3.492771 -0.39281,-5.015814 0.009,-7.791453 1.79978,-12.429435 0.6217,-1.610013 0.64767,-2.706789 0.0666,-2.816828 -0.31997,-0.06076 -0.36732,0.109919 -0.36732,1.318304 0,0.787915 -0.14241,1.725851 -0.32903,2.169272 l -0.32904,0.781271 -0.51746,-1.083247 C 4.1736574,15.282737 3.5799774,14.729276 1.8523174,13.73324 0.63281734,13.029879 -2.6564612e-6,12.246554 -2.6564612e-6,11.440038 -2.6564612e-6,11.099409 0.30088734,10.142871 0.66868734,9.3144925 1.1897774,8.1406525 1.3635974,7.4060065 1.4560074,5.9861175 c 0.14313,-2.200508 0.53449,-2.776291 2.02529,-2.980753 0.77656,-0.106537 1.12987,-0.32234 2.03579,-1.243583 0.75627,-0.76931301 1.38909,-1.20135601 2.04088,-1.39363001 1.19461,-0.352598 3.0946396,-0.481204 3.7802496,-0.256147 z"
     fill="#080809"
     id="path1"
     style="fill:#d45500;stroke-width:0.12079" />
</svg>
